<svg width="50" height="50" viewBox="0 0 50 50" fill="none" xmlns="http://www.w3.org/2000/svg">
<rect x="22.1037" y="3.71927" width="7.06262" height="4.75016" fill="black"/>
<path d="M8.19195 7.73448L43.0781 7.73448" stroke="black" stroke-width="2" stroke-linejoin="round"/>
<path d="M8 10.5L42.8861 10.5" stroke="black" stroke-linejoin="round"/>
<mask id="path-4-inside-1_7_13" fill="white">
<path d="M11 11H40.8487V45.7331C40.8487 46.8377 39.9533 47.7331 38.8487 47.7331H13C11.8954 47.7331 11 46.8377 11 45.7331V11Z"/>
</mask>
<path d="M11 11H40.8487V45.7331C40.8487 46.8377 39.9533 47.7331 38.8487 47.7331H13C11.8954 47.7331 11 46.8377 11 45.7331V11Z" fill="white"/>
<path d="M11 11H40.8487H11ZM43.8487 45.7331C43.8487 48.4946 41.6101 50.7331 38.8487 50.7331H13C11.3431 50.7331 10 49.39 10 47.7331L12 44.7331C12 44.7331 12.4477 44.7331 13 44.7331H37.8487L43.8487 45.7331ZM13 50.7331C11.3431 50.7331 10 49.39 10 47.7331V11H12V44.7331C12 44.7331 12.4477 44.7331 13 44.7331V50.7331ZM43.8487 11V45.7331C43.8487 48.4946 41.6101 50.7331 38.8487 50.7331L37.8487 44.7331V11H43.8487Z" fill="black" mask="url(#path-4-inside-1_7_13)"/>
<line x1="17.5" y1="13" x2="17.5" y2="41.9377" stroke="black"/>
<line x1="24.5" y1="13" x2="24.5" y2="41.9377" stroke="black"/>
<line x1="31.5" y1="13" x2="31.5" y2="41.9377" stroke="black"/>
</svg>
