<svg width="50" height="50" viewBox="0 0 50 50" fill="none" xmlns="http://www.w3.org/2000/svg">
<rect x="22.124" y="2.63507" width="7.06262" height="4.75016" fill="black"/>
<path d="M8.21226 6.65028L43.0984 6.65029" stroke="black" stroke-width="2" stroke-linejoin="round"/>
<path d="M8.21226 9.86097L43.0984 9.86098" stroke="black" stroke-width="2" stroke-linejoin="round"/>
<mask id="path-4-inside-1_7_13" fill="white">
<path d="M10.7107 10.8536H40.5594V45.5868C40.5594 46.6913 39.6639 47.5868 38.5594 47.5868H12.7107C11.6061 47.5868 10.7107 46.6913 10.7107 45.5868V10.8536Z"/>
</mask>
<path d="M10.7107 10.8536H40.5594V45.5868C40.5594 46.6913 39.6639 47.5868 38.5594 47.5868H12.7107C11.6061 47.5868 10.7107 46.6913 10.7107 45.5868V10.8536Z" fill="white"/>
<path d="M10.7107 10.8536H40.5594H10.7107ZM46.5594 45.5868C46.5594 50.005 42.9776 53.5868 38.5594 53.5868H12.7107C10.5015 53.5868 8.71067 51.7959 8.71067 49.5868L12.7107 41.5868H34.5594L46.5594 45.5868ZM12.7107 53.5868C10.5015 53.5868 8.71067 51.7959 8.71067 49.5868V10.8536H12.7107V41.5868V53.5868ZM46.5594 10.8536V45.5868C46.5594 50.005 42.9776 53.5868 38.5594 53.5868L34.5594 41.5868V10.8536H46.5594Z" fill="black" mask="url(#path-4-inside-1_7_13)"/>
</svg>
