<svg width="51" height="50" viewBox="0 0 51 50" fill="none" xmlns="http://www.w3.org/2000/svg">
<path d="M38.1293 11.1498L38.8998 13.279L27.3974 38.0889L26.6269 35.9597L38.1293 11.1498Z" fill="black"/>
<path d="M10.6916 30.2536L9.92114 28.1244L26.6269 35.9597L27.3974 38.0889L10.6916 30.2536Z" fill="black"/>
<path d="M26.6269 35.9597L38.1293 11.1498L21.4235 3.31453L9.92114 28.1244L26.6269 35.9597Z" fill="white"/>
<path d="M38.1293 11.1498L38.8998 13.279L27.3974 38.0889M38.1293 11.1498L26.6269 35.9597M38.1293 11.1498L21.4235 3.31453L9.92114 28.1244M27.3974 38.0889L26.6269 35.9597M27.3974 38.0889L10.6916 30.2536L9.92114 28.1244M26.6269 35.9597L9.92114 28.1244" stroke="black"/>
<path d="M22.8197 14.3346L25.9669 12.867L35.2721 32.8222L32.125 34.2897L22.8197 14.3346Z" fill="white"/>
<path d="M35.1154 36.5944L32.125 34.2897L35.2721 32.8222L35.1154 36.5944Z" fill="white"/>
<path d="M35.2721 32.8222L25.9669 12.867L22.8197 14.3346L32.125 34.2897M35.2721 32.8222L32.125 34.2897M35.2721 32.8222L35.1154 36.5944L32.125 34.2897" stroke="black"/>
<path d="M22.8197 14.3346L23.8379 13.8598L33.1432 33.8149L32.125 34.2897L22.8197 14.3346Z" fill="black"/>
<path d="M33.1432 33.8149L32.125 34.2897L35.0005 36.348L33.1432 33.8149Z" fill="black"/>
<path d="M9.84474 36.58V45.1113H8.22755L4.6006 39.1933V45.1113H2.98927V36.58H4.6006L8.23927 42.5039V36.58H9.84474ZM11.0928 42.0058V41.8828C11.0928 41.4179 11.1592 40.9902 11.292 40.5996C11.4248 40.205 11.6182 39.8632 11.8721 39.5742C12.126 39.2851 12.4365 39.0605 12.8037 38.9003C13.1709 38.7363 13.5889 38.6543 14.0576 38.6543C14.5342 38.6543 14.9561 38.7363 15.3233 38.9003C15.6944 39.0605 16.0069 39.2851 16.2608 39.5742C16.5147 39.8632 16.708 40.205 16.8408 40.5996C16.9736 40.9902 17.0401 41.4179 17.0401 41.8828V42.0058C17.0401 42.4668 16.9736 42.8945 16.8408 43.289C16.708 43.6796 16.5147 44.0214 16.2608 44.3144C16.0069 44.6035 15.6963 44.8281 15.3291 44.9882C14.9619 45.1484 14.542 45.2285 14.0694 45.2285C13.6006 45.2285 13.1807 45.1484 12.8096 44.9882C12.4385 44.8281 12.126 44.6035 11.8721 44.3144C11.6182 44.0214 11.4248 43.6796 11.292 43.289C11.1592 42.8945 11.0928 42.4668 11.0928 42.0058ZM12.6397 41.8828V42.0058C12.6397 42.2832 12.667 42.5429 12.7217 42.7851C12.7764 43.0273 12.8604 43.2402 12.9736 43.4238C13.0869 43.6074 13.2334 43.7519 13.4131 43.8574C13.5967 43.9589 13.8154 44.0097 14.0694 44.0097C14.3194 44.0097 14.5342 43.9589 14.7139 43.8574C14.8936 43.7519 15.0401 43.6074 15.1533 43.4238C15.2705 43.2402 15.3565 43.0273 15.4111 42.7851C15.4658 42.5429 15.4932 42.2832 15.4932 42.0058V41.8828C15.4932 41.6093 15.4658 41.3535 15.4111 41.1152C15.3565 40.873 15.2705 40.6601 15.1533 40.4765C15.0401 40.289 14.8916 40.1425 14.708 40.0371C14.5283 39.9277 14.3115 39.873 14.0576 39.873C13.8076 39.873 13.5928 39.9277 13.4131 40.0371C13.2334 40.1425 13.0869 40.289 12.9736 40.4765C12.8604 40.6601 12.7764 40.873 12.7217 41.1152C12.667 41.3535 12.6397 41.6093 12.6397 41.8828ZM21.1651 38.7714V39.8847H17.5322V38.7714H21.1651ZM18.5049 37.2128H20.0576V43.2832C20.0576 43.4707 20.083 43.6152 20.1338 43.7168C20.1846 43.8183 20.2608 43.8867 20.3623 43.9218C20.4639 43.957 20.585 43.9746 20.7256 43.9746C20.8272 43.9746 20.9209 43.9687 21.0069 43.957C21.0928 43.9453 21.1651 43.9335 21.2236 43.9218L21.2295 45.082C21.1006 45.125 20.9541 45.1601 20.7901 45.1875C20.6299 45.2148 20.4483 45.2285 20.2451 45.2285C19.8975 45.2285 19.5928 45.1699 19.3311 45.0527C19.0694 44.9316 18.8662 44.7382 18.7217 44.4726C18.5772 44.2031 18.5049 43.8476 18.5049 43.4062V37.2128ZM25.044 45.2285C24.5635 45.2285 24.1319 45.1503 23.749 44.9941C23.3662 44.8378 23.0401 44.621 22.7705 44.3437C22.5049 44.0625 22.2998 43.7363 22.1553 43.3652C22.0147 42.9902 21.9444 42.5878 21.9444 42.1582V41.9238C21.9444 41.4355 22.0147 40.9921 22.1553 40.5937C22.2959 40.1914 22.4951 39.8457 22.7529 39.5566C23.0108 39.2675 23.3194 39.0449 23.6787 38.8886C24.0381 38.7324 24.4346 38.6543 24.8682 38.6543C25.3174 38.6543 25.7139 38.7304 26.0576 38.8828C26.4014 39.0312 26.6885 39.2421 26.919 39.5156C27.1494 39.789 27.3233 40.1171 27.4404 40.5C27.5576 40.8789 27.6162 41.2988 27.6162 41.7597V42.4101H22.6475V41.3437H26.0928V41.2265C26.085 40.9804 26.0381 40.7558 25.9522 40.5527C25.8662 40.3457 25.7334 40.1816 25.5537 40.0605C25.374 39.9355 25.1416 39.873 24.8565 39.873C24.626 39.873 24.4248 39.9238 24.2529 40.0253C24.085 40.123 23.9444 40.2636 23.8311 40.4472C23.7217 40.6269 23.6397 40.8418 23.585 41.0918C23.5303 41.3418 23.5029 41.6191 23.5029 41.9238V42.1582C23.5029 42.4238 23.5381 42.6699 23.6084 42.8964C23.6826 43.123 23.7901 43.3203 23.9307 43.4882C24.0752 43.6523 24.2471 43.7812 24.4463 43.875C24.6494 43.9648 24.8799 44.0097 25.1377 44.0097C25.4619 44.0097 25.7549 43.9472 26.0166 43.8222C26.2822 43.6933 26.5127 43.5039 26.708 43.2539L27.4873 44.0625C27.3545 44.2578 27.1748 44.4453 26.9483 44.625C26.7256 44.8046 26.4561 44.9511 26.1397 45.0644C25.8233 45.1738 25.458 45.2285 25.044 45.2285ZM30.2002 39.9902V47.5488H28.6475V38.7714H30.083L30.2002 39.9902ZM34.2725 41.8769V42C34.2725 42.4609 34.2178 42.8886 34.1084 43.2832C34.0029 43.6738 33.8467 44.0156 33.6397 44.3085C33.4326 44.5976 33.1748 44.8242 32.8662 44.9882C32.5615 45.1484 32.21 45.2285 31.8115 45.2285C31.4209 45.2285 31.0811 45.1543 30.792 45.0058C30.5029 44.8535 30.2588 44.6386 30.0596 44.3613C29.8604 44.0839 29.7002 43.7617 29.5791 43.3945C29.4619 43.0234 29.374 42.6191 29.3154 42.1816V41.789C29.374 41.3242 29.4619 40.9023 29.5791 40.5234C29.7002 40.1406 29.8604 39.8105 30.0596 39.5332C30.2588 39.2519 30.501 39.0351 30.7861 38.8828C31.0752 38.7304 31.4131 38.6543 31.7998 38.6543C32.2022 38.6543 32.5557 38.7304 32.8604 38.8828C33.169 39.0351 33.4287 39.2539 33.6397 39.539C33.8506 39.8242 34.0088 40.164 34.1143 40.5585C34.2197 40.9531 34.2725 41.3925 34.2725 41.8769ZM32.7197 42V41.8769C32.7197 41.5957 32.6944 41.3359 32.6436 41.0976C32.5928 40.8554 32.5147 40.6445 32.4092 40.4648C32.3037 40.2812 32.167 40.1386 31.999 40.0371C31.8311 39.9355 31.6279 39.8847 31.3897 39.8847C31.1514 39.8847 30.9463 39.9238 30.7744 40.0019C30.6026 40.08 30.4619 40.1914 30.3526 40.3359C30.2432 40.4804 30.1572 40.6523 30.0947 40.8515C30.0361 41.0468 29.9971 41.2636 29.9776 41.5019V42.4746C30.0127 42.7636 30.0811 43.0234 30.1826 43.2539C30.2842 43.4843 30.4326 43.6679 30.6279 43.8046C30.8272 43.9414 31.085 44.0097 31.4014 44.0097C31.6397 44.0097 31.8428 43.957 32.0108 43.8515C32.1787 43.746 32.3154 43.6015 32.4209 43.4179C32.5264 43.2304 32.6026 43.0156 32.6494 42.7734C32.6963 42.5312 32.7197 42.2734 32.7197 42ZM38.8955 43.7636V40.8398C38.8955 40.625 38.8584 40.4394 38.7842 40.2832C38.71 40.1269 38.5967 40.0058 38.4444 39.9199C38.292 39.8339 38.0986 39.791 37.8643 39.791C37.6572 39.791 37.4756 39.8261 37.3194 39.8964C37.167 39.9668 37.0498 40.0664 36.9678 40.1953C36.8858 40.3203 36.8447 40.4648 36.8447 40.6289H35.292C35.292 40.3671 35.3545 40.1191 35.4795 39.8847C35.6045 39.6464 35.7822 39.4355 36.0127 39.2519C36.2471 39.0644 36.5264 38.9179 36.8506 38.8125C37.1787 38.707 37.5459 38.6543 37.9522 38.6543C38.4326 38.6543 38.8604 38.7363 39.2354 38.9003C39.6143 39.0605 39.9111 39.3027 40.126 39.6269C40.3447 39.9511 40.4541 40.3593 40.4541 40.8515V43.6171C40.4541 43.9335 40.4736 44.205 40.5127 44.4316C40.5557 44.6543 40.6182 44.8476 40.7002 45.0117V45.1113H39.124C39.0498 44.9511 38.9932 44.748 38.9541 44.5019C38.9151 44.2519 38.8955 44.0058 38.8955 43.7636ZM39.1123 41.25L39.124 42.1699H38.1455C37.9033 42.1699 37.6904 42.1953 37.5069 42.246C37.3233 42.2929 37.1729 42.3632 37.0557 42.457C36.9385 42.5468 36.8506 42.6562 36.792 42.7851C36.7334 42.9101 36.7041 43.0527 36.7041 43.2128C36.7041 43.3691 36.7393 43.5097 36.8096 43.6347C36.8838 43.7597 36.9893 43.8593 37.126 43.9335C37.2666 44.0039 37.4307 44.039 37.6182 44.039C37.8916 44.039 38.1299 43.9843 38.333 43.875C38.5361 43.7617 38.6944 43.625 38.8076 43.4648C38.9209 43.3046 38.9815 43.1523 38.9893 43.0078L39.4346 43.6757C39.3799 43.8359 39.2979 44.0058 39.1885 44.1855C39.0791 44.3652 38.9385 44.5332 38.7666 44.6894C38.5947 44.8457 38.3877 44.9746 38.1455 45.0761C37.9033 45.1777 37.6221 45.2285 37.3018 45.2285C36.8916 45.2285 36.5244 45.1464 36.2002 44.9824C35.876 44.8183 35.6201 44.5937 35.4326 44.3085C35.2451 44.0234 35.1514 43.6992 35.1514 43.3359C35.1514 43 35.2139 42.7031 35.3389 42.4453C35.4639 42.1875 35.6494 41.9707 35.8955 41.7949C36.1416 41.6152 36.4463 41.4804 36.8096 41.3906C37.1768 41.2968 37.5967 41.25 38.0694 41.25H39.1123ZM45.6514 43.7636V36.1113H47.21V45.1113H45.8037L45.6514 43.7636ZM41.5791 42.0175V41.8945C41.5791 41.4101 41.6338 40.9707 41.7432 40.5761C41.8565 40.1777 42.0205 39.8359 42.2354 39.5507C42.4502 39.2656 42.71 39.0449 43.0147 38.8886C43.3233 38.7324 43.6729 38.6543 44.0635 38.6543C44.4424 38.6543 44.7725 38.7304 45.0537 38.8828C45.3389 39.0351 45.5811 39.2519 45.7803 39.5332C45.9834 39.8144 46.1455 40.1484 46.2666 40.5351C46.3877 40.9179 46.4756 41.3398 46.5303 41.8007V42.1347C46.4756 42.5839 46.3877 42.996 46.2666 43.371C46.1455 43.746 45.9834 44.0742 45.7803 44.3554C45.5811 44.6328 45.3389 44.8476 45.0537 45C44.7686 45.1523 44.4346 45.2285 44.0518 45.2285C43.6651 45.2285 43.3174 45.1484 43.0088 44.9882C42.7041 44.8281 42.4444 44.6035 42.2295 44.3144C42.0186 44.0253 41.8565 43.6855 41.7432 43.2949C41.6338 42.9043 41.5791 42.4785 41.5791 42.0175ZM43.1319 41.8945V42.0175C43.1319 42.291 43.1553 42.5468 43.2022 42.7851C43.249 43.0234 43.3252 43.2343 43.4307 43.4179C43.5361 43.5976 43.6709 43.7382 43.835 43.8398C44.0029 43.9414 44.2061 43.9921 44.4444 43.9921C44.749 43.9921 44.999 43.9257 45.1944 43.7929C45.3936 43.6562 45.5479 43.4707 45.6572 43.2363C45.7666 42.998 45.8369 42.7304 45.8682 42.4335V41.5136C45.8526 41.2793 45.8115 41.0625 45.7451 40.8632C45.6826 40.664 45.5928 40.4921 45.4756 40.3476C45.3623 40.2031 45.2217 40.0898 45.0537 40.0078C44.8858 39.9257 44.6865 39.8847 44.4561 39.8847C44.2178 39.8847 44.0147 39.9375 43.8467 40.0429C43.6787 40.1445 43.542 40.2871 43.4365 40.4707C43.3311 40.6543 43.2529 40.8671 43.2022 41.1093C43.1553 41.3515 43.1319 41.6132 43.1319 41.8945Z" fill="black"/>
</svg>
