<svg width="50" height="50" viewBox="0 0 50 50" fill="none" xmlns="http://www.w3.org/2000/svg">
<path d="M42.9365 11.8152L44 14.7542L28.123 49L27.0595 46.061L42.9365 11.8152Z" fill="black"/>
<path d="M5.06354 38.1848L4 35.2458L27.0595 46.061L28.123 49L5.06354 38.1848Z" fill="black"/>
<path d="M27.0595 46.061L42.9365 11.8152L19.877 1L4 35.2458L27.0595 46.061Z" fill="white"/>
<path d="M42.9365 11.8152L44 14.7542L28.123 49M42.9365 11.8152L27.0595 46.061M42.9365 11.8152L19.877 1L4 35.2458M28.123 49L27.0595 46.061M28.123 49L5.06354 38.1848L4 35.2458M27.0595 46.061L4 35.2458" stroke="black"/>
<path d="M21.1428 15.597L25.487 13.5713L38.3312 41.116L33.9871 43.1417L21.1428 15.597Z" fill="white"/>
<path d="M38.1149 46.3229L33.9871 43.1417L38.3312 41.116L38.1149 46.3229Z" fill="white"/>
<path d="M38.3312 41.116L25.487 13.5713L21.1428 15.597L33.9871 43.1417M38.3312 41.116L33.9871 43.1417M38.3312 41.116L38.1149 46.3229L33.9871 43.1417" stroke="black"/>
<path d="M21.1428 15.597L22.5483 14.9417L35.3926 42.4863L33.9871 43.1417L21.1428 15.597Z" fill="black"/>
<path d="M35.3926 42.4863L33.9871 43.1417L37.9563 45.9828L35.3926 42.4863Z" fill="black"/>
</svg>
