<svg width="50" height="50" viewBox="0 0 50 50" fill="none" xmlns="http://www.w3.org/2000/svg">
<mask id="path-1-inside-1_131_55" fill="white">
<path d="M8.81929 8.73918H37.4428C38.5473 8.73918 39.4428 9.63461 39.4428 10.7392V46.2684C39.4428 47.3729 38.5473 48.2684 37.4428 48.2684H10.8193C9.71472 48.2684 8.81929 47.3729 8.81929 46.2684V8.73918Z"/>
</mask>
<path d="M8.81929 8.73918H37.4428C38.5473 8.73918 39.4428 9.63461 39.4428 10.7392V46.2684C39.4428 47.3729 38.5473 48.2684 37.4428 48.2684H10.8193C9.71472 48.2684 8.81929 47.3729 8.81929 46.2684V8.73918Z" fill="white"/>
<path d="M7.81929 7.73918H39.4428C41.0996 7.73918 42.4428 9.08233 42.4428 10.7392H36.4428C36.4428 10.1869 36.4428 9.73918 36.4428 9.73918H9.81929L7.81929 7.73918ZM42.4428 46.2684C42.4428 49.0298 40.2042 51.2684 37.4428 51.2684H10.8193C9.16244 51.2684 7.81929 49.9252 7.81929 48.2684L9.81929 45.2684C9.81929 45.2684 10.267 45.2684 10.8193 45.2684H36.4428L42.4428 46.2684ZM10.8193 51.2684C9.16244 51.2684 7.81929 49.9252 7.81929 48.2684V7.73918L9.81929 9.73918V45.2684C9.81929 45.2684 10.267 45.2684 10.8193 45.2684V51.2684ZM39.4428 7.73918C41.0996 7.73918 42.4428 9.08233 42.4428 10.7392V46.2684C42.4428 49.0298 40.2042 51.2684 37.4428 51.2684L36.4428 45.2684V10.7392C36.4428 10.1869 36.4428 9.73918 36.4428 9.73918L39.4428 7.73918Z" fill="black" mask="url(#path-1-inside-1_131_55)"/>
<line x1="14.5598" y1="17.1413" x2="30.9519" y2="17.1413" stroke="black" stroke-width="2"/>
<line x1="14.5598" y1="23.094" x2="30.9519" y2="23.094" stroke="black" stroke-width="2"/>
<line x1="14.5598" y1="29.0468" x2="30.9519" y2="29.0468" stroke="black" stroke-width="2"/>
<mask id="path-6-inside-2_131_55" fill="white">
<path d="M32.5974 13H40.5974V20C40.5974 21.1046 39.7019 22 38.5974 22H34.5974C33.4928 22 32.5974 21.1046 32.5974 20V13Z"/>
</mask>
<path d="M32.5974 13H40.5974V20C40.5974 21.1046 39.7019 22 38.5974 22H34.5974C33.4928 22 32.5974 21.1046 32.5974 20V13Z" fill="white"/>
<path d="M32.5974 13H40.5974H32.5974ZM42.5974 20C42.5974 22.2091 40.8065 24 38.5974 24H34.5974C32.9405 24 31.5974 22.6569 31.5974 21L33.5974 20C33.5974 20 34.0451 20 34.5974 20H38.5974H42.5974ZM34.5974 24C32.9405 24 31.5974 22.6569 31.5974 21V13H33.5974V20C33.5974 20 34.0451 20 34.5974 20V24ZM42.5974 13V20C42.5974 22.2091 40.8065 24 38.5974 24V20V13H42.5974Z" fill="black" mask="url(#path-6-inside-2_131_55)"/>
<mask id="path-8-inside-3_131_55" fill="white">
<path d="M38.5974 7V15H45.5974C46.7019 15 47.5974 14.1046 47.5974 13V9C47.5974 7.89543 46.7019 7 45.5974 7L38.5974 7Z"/>
</mask>
<path d="M38.5974 7V15H45.5974C46.7019 15 47.5974 14.1046 47.5974 13V9C47.5974 7.89543 46.7019 7 45.5974 7L38.5974 7Z" fill="white"/>
<path d="M38.5974 7V15V7ZM45.5974 17C47.8065 17 49.5974 15.2091 49.5974 13V9C49.5974 7.34315 48.2542 6 46.5974 6L45.5974 8C45.5974 8 45.5974 8.44772 45.5974 9V13V17ZM49.5974 9C49.5974 7.34315 48.2542 6 46.5974 6L38.5974 6V8L45.5974 8C45.5974 8 45.5974 8.44772 45.5974 9L49.5974 9ZM38.5974 17H45.5974C47.8065 17 49.5974 15.2091 49.5974 13L45.5974 13H38.5974V17Z" fill="black" mask="url(#path-8-inside-3_131_55)"/>
<mask id="path-10-inside-4_131_55" fill="white">
<path d="M32.5974 8L40.5974 8V2C40.5974 0.895431 39.7019 0 38.5974 0H32.5974V8Z"/>
</mask>
<path d="M32.5974 8L40.5974 8V2C40.5974 0.895431 39.7019 0 38.5974 0H32.5974V8Z" fill="white"/>
<path d="M32.5974 8L40.5974 8L32.5974 8ZM42.5974 2C42.5974 0.343146 41.2542 -1 39.5974 -1H31.5974L33.5974 1H38.5974C38.5974 1 38.5974 1.44772 38.5974 2L42.5974 2ZM31.5974 -1V8H33.5974V1L31.5974 -1ZM42.5974 8V2C42.5974 0.343146 41.2542 -1 39.5974 -1L38.5974 1C38.5974 1 38.5974 1.44772 38.5974 2V8L42.5974 8Z" fill="black" mask="url(#path-10-inside-4_131_55)"/>
<mask id="path-12-inside-5_131_55" fill="white">
<path d="M33.5974 7V15H27.5974C26.4928 15 25.5974 14.1046 25.5974 13V7L33.5974 7Z"/>
</mask>
<path d="M33.5974 7V15H27.5974C26.4928 15 25.5974 14.1046 25.5974 13V7L33.5974 7Z" fill="white"/>
<path d="M33.5974 7V15V7ZM27.5974 17C25.9405 17 24.5974 15.6569 24.5974 14V6L26.5974 8V13C26.5974 13 27.0451 13 27.5974 13V17ZM24.5974 6L33.5974 6V8H26.5974L24.5974 6ZM33.5974 17H27.5974C25.9405 17 24.5974 15.6569 24.5974 14L26.5974 13C26.5974 13 27.0451 13 27.5974 13H33.5974V17Z" fill="black" mask="url(#path-12-inside-5_131_55)"/>
<rect x="33.5974" y="8" width="5" height="5" fill="white"/>
</svg>
